<?xml version="1.0" standalone="no"?>
<!DOCTYPE svg PUBLIC "-//W3C//DTD SVG 20010904//EN"
 "http://www.w3.org/TR/2001/REC-SVG-20010904/DTD/svg10.dtd">
<svg version="1.0" xmlns="http://www.w3.org/2000/svg"
 width="3000.000000pt" height="3000.000000pt" viewBox="0 0 3000.000000 3000.000000"
 preserveAspectRatio="xMidYMid meet">
<metadata>
Created by potrace 1.14, written by Peter Selinger 2001-2017
</metadata>
<g transform="translate(0.000000,3000.000000) scale(0.100000,-0.100000)"
fill="#000000" stroke="none">
<path d="M14809 24975 c-2 -2 -44 -6 -94 -9 -49 -3 -101 -8 -115 -10 -14 -3
-54 -10 -90 -16 -36 -5 -76 -12 -90 -15 -14 -3 -40 -8 -58 -11 -18 -3 -35 -10
-38 -15 -3 -5 -10 -7 -15 -3 -5 3 -35 -2 -67 -11 -31 -10 -64 -19 -72 -20 -41
-9 -259 -89 -325 -120 -16 -7 -49 -21 -72 -30 -24 -10 -43 -22 -43 -28 0 -6
-3 -8 -6 -4 -11 11 -305 -159 -389 -225 -5 -4 -50 -39 -100 -77 -103 -78 -226
-190 -317 -288 -35 -37 -73 -78 -86 -91 -45 -46 -173 -222 -248 -338 -63 -99
-220 -400 -229 -438 -1 -6 -7 -22 -12 -36 -6 -14 -20 -54 -33 -90 -12 -36 -26
-74 -31 -85 -14 -33 -57 -203 -78 -310 -26 -131 -31 -167 -47 -335 -7 -72 -7
-379 0 -450 13 -134 26 -229 46 -320 5 -25 12 -56 14 -70 3 -14 7 -35 10 -47
4 -13 8 -31 10 -40 27 -109 103 -331 149 -436 15 -31 25 -58 25 -60 -8 -10
206 -380 244 -423 10 -11 18 -25 18 -31 0 -6 3 -13 8 -15 4 -1 35 -39 68 -83
76 -99 132 -162 250 -279 85 -85 111 -108 224 -201 169 -140 450 -307 655
-389 50 -20 99 -41 110 -46 29 -13 237 -78 268 -84 15 -2 32 -8 38 -11 6 -4
23 -8 37 -10 15 -2 38 -6 52 -9 56 -14 270 -46 350 -52 269 -22 655 5 845 58
22 6 47 12 55 13 8 1 35 8 60 15 25 6 52 14 60 15 106 24 500 187 500 207 0 5
4 7 9 4 5 -3 24 4 43 17 19 12 52 31 73 42 22 11 45 24 50 28 6 4 53 36 105
71 318 210 609 511 816 843 77 123 208 377 219 423 1 3 7 19 14 35 52 131 117
340 135 435 3 14 10 48 15 75 6 28 13 64 16 80 2 17 7 46 10 65 31 202 37 582
11 740 -3 14 -7 45 -10 70 -13 99 -46 257 -71 340 -1 3 -5 19 -9 35 -4 17 -14
46 -21 66 -8 20 -11 39 -8 43 4 3 2 6 -3 6 -5 0 -11 10 -11 22 -1 13 -6 32
-12 43 -5 11 -19 45 -31 75 -55 141 -163 357 -234 470 -32 51 -104 158 -117
174 -176 221 -227 278 -375 417 -61 57 -216 181 -294 235 -150 104 -396 237
-550 297 -36 14 -78 31 -95 38 -16 7 -34 13 -40 14 -5 2 -56 17 -112 34 -56
17 -144 41 -195 51 -124 27 -136 29 -188 35 -68 8 -113 15 -140 21 -28 6 -436
15 -441 9z"/>
<path d="M14705 18248 c-102 -9 -101 -9 -160 -20 -27 -5 -69 -11 -91 -14 -54
-6 -66 -9 -144 -29 -36 -9 -69 -18 -75 -20 -60 -14 -186 -55 -230 -74 -11 -5
-42 -17 -70 -27 -27 -10 -74 -31 -102 -47 -29 -15 -53 -24 -53 -20 0 4 -4 3
-8 -3 -4 -6 -29 -21 -57 -34 -73 -34 -259 -155 -345 -224 -41 -33 -81 -65 -89
-71 -54 -41 -248 -250 -319 -345 -48 -63 -90 -116 -94 -118 -5 -2 -8 -8 -8
-12 0 -5 -25 -51 -56 -102 -182 -299 -359 -793 -409 -1143 -2 -16 -6 -40 -9
-51 -9 -43 -16 -98 -22 -162 -3 -36 -7 -69 -9 -72 -9 -14 -19 -255 -19 -435 0
-172 7 -340 18 -420 3 -16 8 -59 12 -95 10 -94 10 -91 18 -135 4 -22 16 -87
27 -145 25 -139 26 -141 38 -172 6 -16 9 -28 6 -28 -2 0 2 -18 10 -40 8 -22
15 -44 15 -48 2 -26 43 -162 67 -222 4 -8 5 -18 5 -22 -1 -5 3 -8 8 -8 5 0 9
-3 8 -7 -3 -12 32 -112 67 -188 61 -134 119 -250 127 -253 4 -2 8 -7 8 -12 0
-5 23 -45 50 -89 28 -44 50 -83 50 -87 0 -3 6 -11 13 -18 6 -7 21 -25 32 -40
90 -124 152 -196 253 -296 65 -63 126 -122 137 -130 11 -8 43 -33 70 -56 46
-37 201 -144 210 -144 2 0 21 -12 42 -26 35 -24 274 -144 298 -150 14 -3 176
-63 200 -73 37 -17 294 -78 360 -86 17 -2 61 -9 99 -15 64 -10 202 -20 316
-22 148 -3 504 33 585 59 11 4 27 8 35 9 67 12 227 61 335 102 132 50 396 179
415 203 3 4 30 21 60 39 88 53 279 210 372 306 101 104 157 167 158 175 0 3 9
17 20 30 53 65 85 111 144 209 32 52 61 102 67 110 29 47 78 150 72 150 -5 0
-3 4 2 8 10 7 76 150 108 237 52 138 77 214 79 238 1 15 5 27 9 27 3 0 6 6 6
13 1 16 41 166 47 175 2 4 7 26 11 49 3 23 13 75 21 115 8 40 17 84 18 98 2
14 11 79 19 145 22 170 26 220 32 399 3 87 8 162 11 167 3 5 2 9 -3 9 -4 0 -8
30 -8 66 0 73 -10 239 -19 322 -3 28 -8 73 -11 100 -7 61 -13 111 -20 142 -2
14 -7 36 -10 50 -6 34 -17 91 -20 115 -3 17 -16 76 -30 135 -30 120 -79 284
-105 345 -5 11 -20 53 -34 93 -15 40 -44 112 -67 160 -23 48 -51 107 -62 132
-48 100 -186 318 -264 415 -5 6 -24 30 -42 54 -61 77 -234 246 -331 323 -198
156 -409 276 -639 363 -132 49 -200 72 -233 79 -13 2 -52 12 -88 21 -93 24
-262 52 -365 61 -88 8 -387 9 -470 2z"/>
<path d="M7077 18113 c-1 0 -42 -4 -92 -7 -49 -4 -101 -8 -115 -10 -14 -3 -47
-7 -75 -11 -27 -3 -84 -13 -125 -22 -41 -8 -86 -17 -100 -19 -14 -3 -43 -10
-65 -16 -22 -7 -43 -12 -47 -14 -5 -1 -9 -2 -10 -4 -2 -1 -11 -3 -22 -5 -27
-5 -176 -54 -211 -70 -16 -7 -41 -16 -55 -20 -14 -4 -59 -23 -100 -43 -41 -20
-77 -36 -80 -37 -12 -3 -136 -69 -206 -110 -41 -25 -79 -45 -84 -45 -5 0 -10
-4 -12 -8 -1 -5 -34 -29 -73 -55 -38 -25 -80 -55 -92 -66 -12 -12 -25 -21 -28
-21 -4 0 -19 -11 -33 -24 -15 -14 -49 -43 -77 -66 -144 -122 -309 -298 -425
-455 -44 -60 -84 -115 -88 -120 -24 -30 -155 -262 -192 -340 -45 -95 -120
-278 -125 -308 -2 -9 -7 -22 -10 -27 -3 -5 -8 -18 -10 -27 -3 -10 -14 -49 -25
-88 -23 -79 -55 -220 -64 -280 -3 -22 -7 -49 -10 -60 -32 -160 -40 -613 -12
-750 2 -12 7 -48 11 -80 10 -85 68 -337 99 -428 14 -43 26 -84 26 -92 0 -8 4
-15 8 -15 5 0 9 -6 9 -12 0 -7 7 -29 15 -48 9 -19 23 -55 32 -79 19 -48 101
-217 148 -301 40 -71 183 -286 217 -325 14 -17 40 -48 56 -69 82 -104 250
-273 364 -366 24 -19 57 -47 74 -62 18 -15 38 -28 45 -28 6 0 12 -4 12 -8 0
-4 20 -21 45 -36 25 -16 45 -33 45 -37 0 -5 4 -9 10 -9 5 0 42 -21 82 -46 39
-25 108 -65 152 -88 45 -24 90 -48 101 -54 34 -18 126 -59 200 -87 39 -15 79
-31 90 -36 11 -4 73 -24 137 -44 99 -29 163 -44 339 -80 9 -2 40 -6 70 -10 30
-3 66 -8 80 -10 131 -22 519 -22 649 -1 14 2 50 7 80 11 30 4 62 8 70 10 240
49 293 62 440 112 110 37 196 70 278 109 40 19 77 34 83 34 5 0 9 4 9 9 0 5
11 12 25 15 22 6 243 132 255 146 3 3 34 25 70 49 155 104 402 327 520 470 25
30 58 68 73 85 27 30 112 151 169 239 63 98 188 336 203 387 4 14 11 27 14 30
4 3 12 21 18 40 7 19 26 73 43 120 43 117 92 308 114 445 30 179 38 281 39
445 0 130 -9 317 -18 360 -3 14 -7 41 -9 60 -8 69 -26 170 -36 195 -5 14 -8
25 -6 25 2 0 -2 20 -10 45 -7 25 -11 45 -8 45 3 0 -1 10 -7 22 -7 12 -13 29
-13 38 -3 28 -70 222 -105 303 -11 26 -21 49 -21 52 0 3 -26 56 -57 118 -31
61 -56 117 -54 122 1 6 -1 7 -5 2 -4 -4 -17 12 -29 36 -26 51 -120 195 -164
252 -17 22 -34 45 -38 50 -106 141 -227 266 -428 444 -35 31 -221 169 -253
188 -17 10 -68 41 -114 68 -73 45 -217 118 -330 169 -124 55 -397 143 -508
162 -14 3 -41 9 -60 14 -32 7 -53 11 -160 25 -19 3 -44 7 -55 9 -59 12 -458
29 -468 19z"/>
<path d="M22458 17955 c-2 -2 -37 -5 -78 -9 -93 -7 -123 -11 -260 -32 -19 -3
-55 -10 -80 -16 -25 -6 -54 -12 -65 -13 -17 -3 -221 -59 -250 -69 -5 -2 -12
-4 -15 -4 -3 -1 -45 -17 -95 -37 -49 -19 -96 -35 -102 -35 -7 0 -13 -4 -13 -9
0 -5 -11 -12 -25 -15 -64 -16 -426 -211 -455 -245 -3 -3 -14 -12 -25 -19 -67
-42 -91 -59 -138 -97 -226 -184 -386 -348 -532 -545 -103 -140 -97 -131 -114
-161 -8 -13 -31 -51 -51 -84 -20 -33 -61 -107 -89 -165 -79 -156 -100 -206
-153 -354 -22 -61 -39 -111 -38 -111 1 0 -1 -7 -3 -15 -8 -23 -46 -182 -51
-210 -3 -14 -5 -25 -6 -25 -1 0 -4 -13 -6 -30 -2 -16 -8 -57 -14 -90 -14 -87
-18 -120 -26 -215 -9 -104 -9 -390 1 -462 3 -29 8 -66 10 -83 12 -106 35 -236
58 -330 33 -133 96 -336 116 -372 15 -28 51 -112 51 -118 0 -8 71 -150 111
-222 42 -75 134 -223 161 -258 5 -5 36 -46 70 -90 61 -80 180 -217 229 -265
239 -230 446 -381 712 -520 116 -61 358 -164 405 -174 9 -1 25 -6 35 -9 44
-17 53 -20 67 -23 8 -1 58 -14 110 -28 52 -14 109 -27 125 -30 17 -3 53 -10
80 -16 28 -6 73 -13 100 -16 28 -2 61 -7 75 -9 128 -23 584 -23 670 0 8 2 38
7 65 10 28 4 59 8 70 9 31 4 82 15 175 38 47 11 90 21 95 22 86 18 310 99 440
159 123 57 359 189 391 218 11 10 26 19 32 19 7 0 12 5 12 10 0 6 5 10 11 10
6 0 16 6 24 13 7 6 25 21 41 32 24 18 110 86 158 125 42 35 275 269 316 319
25 29 53 62 63 72 9 11 15 19 12 19 -3 0 5 11 17 26 47 53 177 257 243 380 39
71 69 130 67 132 -1 1 9 23 22 50 21 41 66 158 111 287 12 35 33 108 41 140 1
6 9 39 18 75 9 36 18 79 21 95 3 17 7 41 10 55 9 44 16 92 21 139 2 25 8 75
11 111 15 132 7 490 -12 608 -3 15 -11 70 -20 122 -17 105 -51 247 -85 350 -6
19 -13 42 -15 50 -3 15 -39 114 -58 160 -6 14 -10 28 -9 33 1 4 -2 7 -8 7 -5
0 -10 7 -10 15 0 8 -4 23 -9 33 -6 9 -31 60 -56 112 -26 52 -51 102 -56 110
-5 8 -26 44 -46 79 -65 110 -164 256 -215 316 -9 11 -26 31 -38 45 -117 137
-222 246 -310 320 -29 25 -58 50 -64 55 -6 6 -31 26 -56 45 -25 19 -47 37 -50
40 -16 19 -228 156 -310 201 -25 13 -47 26 -50 29 -3 3 -61 32 -130 64 -120
57 -289 122 -395 153 -27 8 -57 17 -65 20 -8 3 -24 7 -36 8 -12 1 -30 5 -40 9
-10 5 -32 10 -48 13 -16 2 -59 11 -95 19 -65 15 -89 18 -186 29 -27 4 -68 8
-90 11 -41 5 -422 13 -427 9z"/>
<path d="M14707 12054 c-1 -1 -74 -5 -162 -8 -88 -4 -176 -9 -195 -11 -35 -3
-152 -14 -225 -20 -22 -1 -67 -6 -100 -10 -33 -4 -76 -8 -95 -11 -19 -2 -69
-8 -110 -14 -41 -6 -90 -13 -109 -16 -19 -2 -43 -6 -55 -9 -12 -2 -39 -7 -60
-10 -21 -3 -48 -7 -60 -10 -12 -2 -37 -7 -56 -10 -19 -2 -46 -7 -60 -10 -14
-3 -61 -13 -105 -21 -44 -8 -87 -18 -95 -21 -8 -3 -22 -7 -30 -8 -21 -3 -270
-64 -300 -74 -14 -5 -43 -14 -65 -19 -67 -19 -339 -104 -350 -111 -5 -3 -14
-6 -20 -6 -5 -1 -19 -5 -30 -9 -11 -5 -45 -17 -75 -29 -30 -11 -74 -28 -97
-39 -24 -10 -46 -18 -49 -18 -12 0 -269 -114 -377 -167 -59 -29 -110 -53 -113
-53 -2 0 -22 -11 -44 -25 -22 -14 -40 -22 -40 -18 0 5 -4 3 -8 -3 -4 -6 -34
-26 -67 -44 -69 -38 -90 -51 -162 -97 -28 -18 -56 -33 -62 -33 -6 0 -11 -3
-11 -8 0 -4 -15 -15 -33 -25 -18 -10 -48 -31 -67 -47 -19 -16 -36 -27 -38 -25
-3 2 -10 -1 -17 -8 -6 -7 -24 -21 -40 -32 -296 -213 -553 -459 -775 -745 -14
-18 -29 -37 -35 -44 -5 -6 -25 -34 -44 -61 -19 -28 -49 -71 -68 -97 -18 -26
-33 -50 -33 -52 0 -2 -20 -35 -45 -73 -25 -37 -45 -73 -45 -80 0 -6 -4 -13 -9
-15 -13 -4 -180 -340 -225 -453 -20 -49 -44 -103 -53 -120 -10 -16 -16 -31
-14 -33 3 -3 -36 -112 -50 -136 -6 -10 -12 -26 -14 -36 -2 -9 -18 -59 -35
-111 -18 -52 -33 -98 -34 -104 -2 -5 -8 -30 -15 -55 -7 -25 -13 -46 -12 -47 0
-2 -6 -18 -15 -38 -8 -19 -14 -36 -13 -37 1 -5 -13 -63 -22 -88 -4 -14 -11
-36 -13 -50 -3 -14 -16 -68 -30 -120 -26 -101 -76 -327 -80 -363 -2 -12 -6
-33 -10 -47 -6 -25 -14 -67 -20 -105 -2 -11 -6 -36 -10 -55 -3 -19 -8 -46 -10
-60 -3 -14 -7 -34 -9 -45 -6 -27 -18 -100 -23 -139 -3 -17 -9 -58 -14 -91 -16
-97 -23 -149 -22 -167 0 -10 -4 -20 -9 -23 -5 -4 -7 -10 -4 -15 3 -4 -2 -55
-10 -112 -8 -58 -17 -125 -19 -149 -3 -24 -7 -57 -10 -74 -3 -16 -7 -61 -11
-99 -3 -38 -8 -79 -10 -90 -5 -20 -11 -78 -20 -176 -2 -25 -6 -58 -9 -74 -7
-38 -19 -171 -20 -218 -1 -21 -3 -38 -6 -38 -3 0 -6 -15 -6 -32 -1 -18 -5 -78
-9 -133 -10 -133 -9 -244 0 -340 5 -44 9 -82 10 -85 1 -3 5 -23 10 -45 18 -90
92 -219 158 -274 17 -14 38 -33 46 -42 29 -31 185 -111 271 -139 89 -30 234
-68 260 -68 8 0 26 -3 40 -6 59 -12 88 -17 130 -21 25 -3 61 -7 80 -10 19 -3
53 -7 75 -10 132 -13 167 -16 230 -20 39 -3 106 -7 150 -10 403 -27 940 -31
2320 -20 1048 10 2834 9 3905 0 1512 -13 2047 -6 2485 30 191 16 260 23 260
25 0 1 18 3 40 5 59 4 180 23 320 50 62 12 190 51 255 78 151 62 275 156 339
255 36 57 76 160 86 222 3 25 9 59 11 75 6 38 6 293 0 360 -2 28 -7 88 -11
135 -4 47 -9 94 -11 105 -2 11 -6 45 -9 75 -3 30 -7 69 -10 85 -2 17 -7 64
-11 105 -8 83 -12 115 -14 115 -1 0 -3 20 -5 45 -3 25 -7 63 -10 85 -2 22 -7
65 -11 95 -6 63 -11 102 -18 145 -3 17 -8 55 -11 85 -4 30 -9 64 -10 75 -4 22
-13 86 -21 155 -3 25 -8 53 -10 63 -3 9 -7 34 -10 55 -7 65 -13 102 -17 110
-3 4 -8 34 -12 67 -3 33 -13 91 -21 128 -8 38 -12 73 -9 77 3 5 1 11 -4 14 -5
3 -12 29 -16 58 -7 56 -8 60 -25 123 -5 22 -13 58 -16 80 -3 22 -12 63 -20 92
-9 29 -17 65 -20 80 -25 140 -154 570 -239 793 -20 52 -37 100 -39 105 -1 6
-9 26 -18 45 -8 19 -27 64 -42 100 -48 117 -168 353 -235 464 -36 60 -73 121
-81 135 -8 14 -27 42 -42 62 -16 20 -28 39 -28 42 0 4 -8 15 -17 26 -10 10
-34 42 -53 71 -19 28 -44 62 -55 74 -11 12 -38 44 -60 71 -88 111 -316 344
-429 440 -114 96 -253 205 -262 205 -3 0 -24 15 -47 33 -146 116 -553 348
-812 462 -33 14 -73 32 -90 40 -189 86 -688 259 -835 289 -14 3 -59 15 -100
26 -41 11 -86 23 -100 25 -14 3 -43 9 -65 15 -104 24 -173 39 -210 45 -22 4
-47 9 -55 12 -8 3 -26 7 -40 9 -26 3 -111 17 -120 19 -18 5 -100 18 -125 20
-16 2 -64 8 -105 14 -78 12 -131 19 -215 27 -27 2 -60 6 -72 9 -13 2 -65 6
-116 10 -50 3 -115 8 -142 11 -127 12 -767 27 -778 18z"/>
</g>
</svg>
